<svg id="Layer_1" data-name="Layer 1" xmlns="http://www.w3.org/2000/svg" viewBox="0 0 1200 1200"><defs><style>.cls-1{fill:#e9e8e8;}.cls-2{fill:#1d252f;}.cls-3{fill:#9ed4c0;}.cls-4,.cls-7{fill:#fff;}.cls-10,.cls-11,.cls-12,.cls-13,.cls-14,.cls-5,.cls-8{fill:none;}.cls-10,.cls-11,.cls-12,.cls-13,.cls-5,.cls-7,.cls-8{stroke:#1d252e;}.cls-10,.cls-12,.cls-13,.cls-5,.cls-7,.cls-8{stroke-linecap:round;}.cls-10,.cls-12,.cls-5,.cls-7,.cls-8{stroke-linejoin:round;}.cls-5{stroke-width:4px;}.cls-6{fill:#9dd5c0;}.cls-7{stroke-width:4.12px;}.cls-13,.cls-8{stroke-width:3px;}.cls-9{fill:#1d252e;}.cls-10{stroke-width:2px;}.cls-11{stroke-miterlimit:10;}</style></defs><path id="Path-141" class="cls-1" d="M441.86,467.29c110.69-74.84,365-274.08,498.13-158.15s60.26,672.6-332,612.66c-147.36-22.52-370-34.95-401.22-104C154.88,702.94,372.75,514,441.86,467.29Z"/><path class="cls-2" d="M877.21,396.45V285.56a57.69,57.69,0,0,0-57.62-57.62H562.19a57.69,57.69,0,0,0-57.62,57.62v45h-2.19v38.8h2.19v9h-2.19v61.14h2.19v2.29h-2.19V503h2.19V903.92a57.68,57.68,0,0,0,57.62,57.62h257.4a57.68,57.68,0,0,0,57.62-57.62V485.6h2.19V396.45Z"/><path class="cls-3" d="M853.63,281.5V912c0,14.52-11.68,26.41-26.33,27.15-.48,0-.95,0-1.43,0h-270c-.49,0-1,0-1.43,0-14.65-.74-26.35-12.63-26.35-27.15V281.5c0-15,12.47-27.18,27.78-27.18h46.72v5.54a18.42,18.42,0,0,0,18.63,18.21H760.52a18.43,18.43,0,0,0,18.62-18.21v-5.54h46.73C841.18,254.32,853.63,266.51,853.63,281.5Z"/><circle class="cls-4" cx="736.51" cy="258.67" r="4.34"/><rect class="cls-4" x="645.61" y="254.32" width="78.14" height="8.69" rx="4.34"/><path class="cls-4" d="M824.12,480.76V628.42a10,10,0,0,1-10,10H568.52a10,10,0,0,1-10-10V480.76a10,10,0,0,1,10-10h245.6A10,10,0,0,1,824.12,480.76Z"/><path class="cls-5" d="M824.12,546.06v82.36a10,10,0,0,1-10,10H568.52a10,10,0,0,1-10-10V480.76a10,10,0,0,1,10-10H721.29"/><rect class="cls-2" x="580.78" y="580.45" width="93.8" height="11.14" rx="5.57"/><rect class="cls-2" x="580.78" y="603.22" width="119.43" height="11.14" rx="5.57"/><rect class="cls-2" x="558.51" y="497.58" width="265.61" height="39.25"/><rect class="cls-6" x="719.16" y="448.09" width="127.81" height="95.86" rx="47.93"/><path class="cls-5" d="M803.81,448.32A48,48,0,0,1,847,496h0a47.94,47.94,0,0,1-45.1,47.85"/><path class="cls-5" d="M779,544H767.09a47.77,47.77,0,0,1-21-4.83"/><path class="cls-5" d="M730,465.63a47.83,47.83,0,0,1,37.07-17.54H779"/><path class="cls-7" d="M807.86,511.41a5.28,5.28,0,0,1-7.46,7.46L785,503.49l-15.39,15.38a5.28,5.28,0,1,1-7.46-7.46L777.55,496l-15.39-15.39a5.28,5.28,0,1,1,7.46-7.47L785,488.56l15.39-15.4a5.28,5.28,0,1,1,7.46,7.47L792.48,496Z"/><line class="cls-5" x1="594.85" y1="669.27" x2="786.85" y2="669.27"/><line class="cls-5" x1="641.86" y1="688.39" x2="739.84" y2="688.39"/><path id="Path-32" class="cls-4" d="M483.43,924.07l.53,12.68c.12,2.86,5,31.3,2.49,32s-74.48,7-65.78,0,36.28-27.28,36-33c1.63-2.64.14-13.45.14-13.45Z"/><path id="Path-33" class="cls-4" d="M386.67,918.85l-.33,34.81.45,17.85-64.28-1-1.91-1.9.7-1.47c16.88-12.33,32.41-24.42,41-35.31l1.19-14.72Z"/><path id="Path-32-2" data-name="Path-32" class="cls-8" d="M483.58,927.7l.38,9c.12,2.86,5,31.3,2.49,32s-74.48,7-65.78,0,36.28-27.28,36-33l.76-4.81"/><path id="Path-33-2" data-name="Path-33" class="cls-8" d="M386.53,922.49c-.75,18.37-.71,26.33-.19,31.17a132.62,132.62,0,0,1,.45,17.85l-64.28-1a2,2,0,0,1-1.91-1.9,1.75,1.75,0,0,1,.7-1.47q41.08-30.93,41-35.31l.52-6.38"/><polygon id="Path-36" class="cls-4" points="444.1 489.84 432.2 486.93 428.6 465.15 432.61 458.07 434.21 450.62 439.8 449.75 442.38 444.33 440.57 438.76 438.73 437.16 440.6 427.23 403.03 426.29 400.9 427.62 396.42 437.57 394.31 448.71 397.1 457.98 401.68 463.54 408.03 467.23 410.32 466.87 413.32 487.14 397.15 488.81 412.92 504.98 445.09 504.16 444.1 489.84"/><path id="Path-20" class="cls-8" d="M440.09,489.22l-8.36-1.33-3.21-22.43s3.45-6,4.08-7.39a27.64,27.64,0,0,0,1.56-7.41c6.06-.46,8.67-3.11,8-8-.67-4.56-3.71-6.21-9.21-5.24"/><path id="Path-21" class="cls-8" d="M398.71,433.18Q393,444,394.78,451.39q4.59,14.73,16.3,16l2.13,20.07-8,1.22"/><path id="Path-31" class="cls-9" d="M473.81,649.12c1.47,17.7,17.67,273.42,17.67,273.42q-22.37,4-33.49,4t-16-4L428.8,701.67c-6.28,2.73-13.69,2.64-18.86-1l-10.8,216.4c-11.64,1.67-28.11,3.38-33.91,3.29a82.82,82.82,0,0,1-19.74-3.1s12.33-253,25.1-266.75S461.26,640.11,473.81,649.12Z"/><path id="Path-22" class="cls-8" d="M439.13,433.83c-1.54-.94-5.72-.94-7.34-.6"/><path id="Path-23" class="cls-9" d="M440.37,431.39a25.6,25.6,0,0,0-10.52-1.07c-.45-1.25-1-2.65-1.64-4.19q-7.86,11.24-27.33,2.29c-19.47-8.94-1.58-42.57,18.08-31.78q10.64,6,12.32,10.54,7.83-.07,9.91,4.16Q445.17,416.94,440.37,431.39Z"/><path id="Path-24" class="cls-6" d="M444.51,489.26q-10.08,14.1-24,12.08c-13.92-2-18.33-5.61-21.06-12.41-8.69-2.07-19.45,4.39-26.42,8.93S351.67,524,352,536.5,374.85,548,374.85,548c-2.57,9.85-2.12,8.34-5.29,43.72q-1.17,23.46-4.57,60.15,38.58,12.55,58.56,12.6t55.17-12.34l-8.45-93.38c1.66-.71,9.21-28.27,4.69-48.95S464.11,492.31,444.51,489.26Z"/><path class="cls-4" d="M404.09,440.43c-1.23,10-7.76,17.73-11.28,20.27s-6.14,4.62-8.44,8.8c-3.3,8.94-12.85,32.68-18.73,46.71,3.4-.53-6.4,26.44-10.31,26v0c-.54-.07-1.09-.16-1.64-.25h0a26.59,26.59,0,0,1-17.07-9.75c-3.47-3.35,6.11-33.67,38.21-73.67,6.2-13.24,3.7-16.69,16.48-28.29S405.32,430.43,404.09,440.43Z"/><path class="cls-8" d="M355.32,542.21c-6.13-.8-13.05-3-18.71-10-3.47-3.35,6.11-33.67,38.21-73.67,6.2-13.24,3.7-16.69,16.48-28.29s14,.18,12.79,10.18-7.76,17.73-11.28,20.27-6.14,4.62-8.44,8.8c-3.86,10.47-15.74,48.17-18.16,48.86"/><path class="cls-8" d="M370.55,581.89s2.59-39.88,9-46.3"/><path class="cls-6" d="M357.91,554.86l-10.45.18a3.49,3.49,0,0,1-3.17-1.57l-17.87-30.23c-1.36-2.29.68-4.57,3.82-4.66l11.93.19a3.46,3.46,0,0,1,3.17,1.56L362,549.4C363.35,551.7,361.05,554.78,357.91,554.86Z"/><path class="cls-10" d="M361,546.61,343.81,519l-14.11-.14c-4.09-.22-3.28,4.37-3.28,4.37l14.61,0,13.56,21.28"/><ellipse class="cls-11" cx="331.36" cy="526.65" rx="0.91" ry="1.04" transform="translate(-166.6 153.57) rotate(-20.98)"/><line class="cls-12" x1="343.41" y1="522.88" x2="345.74" y2="526.44"/><path id="Path-93" class="cls-4" d="M437.39,575.07c-7.9,8.38-20.81,6.22-20.81,6.22l-54.23-24.66a23.75,23.75,0,0,1-13.28,1.92c-6.92-1.26-18.26-9.36-19.66-17.17s19.46-6,24.53-5.75q5.08.3,16.15,7l46.78,10.57,8.53-8.4,24.74,18.37Z"/><path id="Path-93-2" data-name="Path-93" class="cls-13" d="M437.39,575.07c-7.9,8.38-20.57,6.16-20.57,6.16l-54.47-24.6a23.75,23.75,0,0,1-13.28,1.92c-6.92-1.26-18.26-9.36-19.66-17.17s19.46-6,24.53-5.75q5.08.3,16.15,7l46.78,10.57"/><path id="Path-88" class="cls-6" d="M445.58,573.2,418.2,546.05c16.62-24.06,34.72-58,47.18-52.82,20.6,8.59,17.57,30.33,15.25,40.34C474.82,558.6,445.58,573.2,445.58,573.2Z"/><path id="Path-88-2" data-name="Path-88" class="cls-13" d="M479.91,535.89c-11.07,23.23-34.33,37.31-34.33,37.31"/><path class="cls-13" d="M433.75,534.4c-3.25,1.26-5.53,4.09-7.81,8"/><rect class="cls-14" width="1200" height="1200"/></svg>